<?xml version="1.0" encoding="utf-8"?>
<!-- Generator: Adobe Illustrator 23.0.1, SVG Export Plug-In . SVG Version: 6.00 Build 0)  -->
<svg version="1.1" id="Layer_1" xmlns="http://www.w3.org/2000/svg" width="460px" xmlns:xlink="http://www.w3.org/1999/xlink" x="0px" y="0px"
	 viewBox="0 0 343.2 61.5" style="enable-background:new 0 0 343.2 61.5;" xml:space="preserve">
<style type="text/css">
	.st0{enable-background:new    ;}
	.st1{fill:none;stroke:#000000;stroke-width:0.6216;stroke-miterlimit:10;}
	.st2{fill:none;}
</style>
<g class="st0">
	<path d="M17.1,6.6c1.5,0.7,3,1.7,4.3,3.2l-3.4,3.9c-0.8-1.2-1.7-2-2.7-2.6c-1-0.5-2.3-0.8-3.7-0.8c-1.2,0-2.1,0.2-2.8,0.6
		c-0.7,0.4-1,1-1,1.7c0,0.6,0.3,1.1,1,1.4c0.7,0.4,1.9,0.7,3.5,1c2,0.3,3.6,0.8,4.8,1.3c1.3,0.5,2.3,1.3,3,2.2
		c0.7,1,1.1,2.2,1.1,3.7c0,1.5-0.4,2.7-1.3,3.8c-0.8,1.1-2,1.9-3.5,2.4c-1.5,0.6-3.1,0.8-5,0.8c-2.6,0-4.7-0.3-6.3-1
		c-1.6-0.6-3-1.6-4.2-2.9L4,21.2c0.9,1.3,1.9,2.1,3.1,2.6c1.1,0.5,2.5,0.8,4.1,0.8c1.3,0,2.2-0.2,2.9-0.5c0.6-0.4,1-0.9,1-1.6
		c0-0.5-0.3-1-1-1.3c-0.7-0.3-1.8-0.7-3.4-1c-2-0.4-3.6-0.9-4.9-1.4c-1.3-0.5-2.3-1.3-3-2.2c-0.7-0.9-1.1-2.1-1.1-3.6
		S2,10.3,2.8,9.2c0.8-1.1,1.9-2,3.4-2.7c1.5-0.6,3.3-1,5.3-1C13.7,5.6,15.6,5.9,17.1,6.6z"/>
	<path d="M42.3,25.4l-0.5,3.3c-0.7,0.4-1.5,0.6-2.4,0.6c-2.5,0-4-0.9-4.5-2.7c-1,1.8-3.1,2.7-6.2,2.7c-1.7,0-3.1-0.4-4-1.1
		c-0.9-0.7-1.4-1.8-1.4-3.2c0-1.5,0.5-2.7,1.6-3.6c1.1-0.9,2.8-1.6,5.2-2.1l3.9-0.8v-0.6c0-0.8-0.2-1.4-0.7-1.9
		c-0.4-0.5-1-0.7-1.8-0.7c-0.9,0-1.6,0.2-2.2,0.6s-0.9,1.1-1.1,2.1l-4.8-1.4c0.3-1.7,1.1-3,2.5-4c1.4-0.9,3.2-1.4,5.5-1.4
		c2.7,0,4.8,0.6,6.2,1.7c1.4,1.1,2.1,2.8,2.1,5v6.3c0,0.9,0.4,1.4,1.3,1.4C41.7,25.5,42.1,25.5,42.3,25.4z M33.2,24.8
		c0.7-0.5,1-1.1,1-1.8v-1.5l-2.8,0.7c-0.7,0.2-1.3,0.4-1.6,0.7c-0.3,0.3-0.5,0.6-0.5,1.1c0,0.5,0.2,0.9,0.5,1.1
		c0.3,0.3,0.7,0.4,1.3,0.4C31.8,25.4,32.5,25.2,33.2,24.8z"/>
	<path d="M60.5,12.8c1.1,1.1,1.6,2.6,1.6,4.6v11.6h-5.9V19c0-1.2-0.2-2-0.6-2.5c-0.4-0.5-1-0.8-1.8-0.8c-0.9,0-1.7,0.3-2.3,1
		c-0.6,0.7-0.9,1.7-0.9,3v9.2h-5.9V11.5H50l0.2,3.3c0.6-1.2,1.3-2.2,2.4-2.8c1-0.6,2.2-0.9,3.6-0.9C58,11.2,59.4,11.7,60.5,12.8z"/>
	<path d="M84,4.1v24.8h-5.3l-0.2-3.3c-0.5,1.1-1.3,2-2.2,2.7c-1,0.6-2.1,1-3.4,1c-2.3,0-4-0.8-5.3-2.4c-1.3-1.6-1.9-3.8-1.9-6.6
		c0-2.9,0.6-5.1,1.9-6.7c1.3-1.6,3-2.4,5.3-2.4c1.2,0,2.3,0.3,3.2,0.9c0.9,0.6,1.6,1.4,2.1,2.4V4.1H84z M77.1,23.9
		c0.6-0.7,0.9-1.7,1-3v-1.4c-0.1-1.3-0.4-2.3-1-3c-0.6-0.7-1.3-1-2.3-1c-1,0-1.9,0.4-2.4,1.2s-0.9,2-0.9,3.6s0.3,2.8,0.9,3.6
		s1.4,1.2,2.4,1.2C75.7,24.9,76.5,24.6,77.1,23.9z"/>
	<path d="M105,21.9H93.1c0.2,1.1,0.6,1.9,1.2,2.4c0.6,0.5,1.4,0.8,2.5,0.8c0.9,0,1.6-0.2,2.1-0.5c0.5-0.3,0.9-0.8,1.1-1.4l4.8,1.5
		c-0.5,1.5-1.4,2.6-2.8,3.4c-1.4,0.8-3.1,1.2-5.2,1.2c-3,0-5.4-0.8-7-2.4c-1.6-1.6-2.4-3.8-2.4-6.7c0-2.9,0.8-5.1,2.4-6.7
		c1.6-1.6,3.8-2.4,6.7-2.4c2.8,0,5,0.8,6.5,2.3c1.5,1.5,2.2,3.7,2.2,6.5C105.2,20.8,105.1,21.4,105,21.9z M93.1,18.7h6.6
		c-0.3-2.3-1.3-3.4-3.2-3.4C94.5,15.3,93.4,16.4,93.1,18.7z"/>
	<path d="M121.1,11.5l-0.6,5c-0.2-0.1-0.5-0.3-0.9-0.4c-0.4-0.1-0.8-0.2-1.3-0.2c-1.1,0-2,0.4-2.8,1.1s-1.1,1.7-1.1,3v8.8h-5.9V11.5
		h5.2l0.2,3.8c0.4-1.3,1.1-2.3,2-3c0.9-0.7,2-1.1,3.3-1.1C120,11.2,120.7,11.3,121.1,11.5z"/>
	<path d="M150.8,24.3v4.6h-17.5v-23h6v18.4H150.8z"/>
	<path d="M171.8,25.4l-0.5,3.3c-0.7,0.4-1.5,0.6-2.4,0.6c-2.5,0-4-0.9-4.5-2.7c-1,1.8-3.1,2.7-6.2,2.7c-1.7,0-3.1-0.4-4-1.1
		c-0.9-0.7-1.4-1.8-1.4-3.2c0-1.5,0.5-2.7,1.6-3.6c1.1-0.9,2.8-1.6,5.2-2.1l3.9-0.8v-0.6c0-0.8-0.2-1.4-0.7-1.9
		c-0.4-0.5-1-0.7-1.8-0.7c-0.9,0-1.6,0.2-2.2,0.6s-0.9,1.1-1.1,2.1l-4.8-1.4c0.3-1.7,1.1-3,2.5-4c1.4-0.9,3.2-1.4,5.5-1.4
		c2.7,0,4.8,0.6,6.2,1.7c1.4,1.1,2.1,2.8,2.1,5v6.3c0,0.9,0.4,1.4,1.3,1.4C171.2,25.5,171.5,25.5,171.8,25.4z M162.6,24.8
		c0.7-0.5,1-1.1,1-1.8v-1.5l-2.8,0.7c-0.7,0.2-1.3,0.4-1.6,0.7c-0.3,0.3-0.5,0.6-0.5,1.1c0,0.5,0.2,0.9,0.5,1.1
		c0.3,0.3,0.7,0.4,1.3,0.4C161.2,25.4,162,25.2,162.6,24.8z"/>
	<path d="M190,12.8c1.1,1.1,1.6,2.6,1.6,4.6v11.6h-5.9V19c0-1.2-0.2-2-0.6-2.5c-0.4-0.5-1-0.8-1.8-0.8c-0.9,0-1.7,0.3-2.3,1
		c-0.6,0.7-0.9,1.7-0.9,3v9.2h-5.9V11.5h5.3l0.2,3.3c0.6-1.2,1.3-2.2,2.4-2.8c1-0.6,2.2-0.9,3.6-0.9C187.4,11.2,188.9,11.7,190,12.8
		z"/>
	<path d="M211.5,26.4c1.1,0.9,1.7,2.2,1.7,3.9c0,2-0.9,3.5-2.6,4.5c-1.8,1.1-4.1,1.6-7.2,1.6c-3,0-5.3-0.4-6.7-1.1
		c-1.5-0.7-2.2-1.7-2.2-3c0-0.8,0.3-1.4,0.8-2c0.5-0.6,1.3-1,2.4-1.3c-1.8-0.8-2.7-2-2.7-3.6c0-0.8,0.3-1.5,0.8-2.2
		c0.5-0.6,1.2-1.1,2.1-1.4c-1.9-1-2.9-2.6-2.9-4.8c0-1.9,0.7-3.3,2.2-4.4c1.5-1,3.6-1.6,6.3-1.6c1.3,0,2.4,0.1,3.5,0.4
		c0.2-1.4,0.8-2.5,1.6-3.4s1.9-1.3,3.4-1.3l0.6,0l0.7,3.9c-0.5,0-0.8-0.1-1-0.1c-0.8,0-1.4,0.1-2,0.4c-0.5,0.3-0.9,0.7-1.1,1.2
		c2,1,2.9,2.6,2.9,4.8c0,1.9-0.7,3.3-2.2,4.4c-1.5,1-3.6,1.5-6.3,1.5c-1.3,0-2.4-0.1-3.3-0.3c-0.7,0.2-1.1,0.6-1.1,1.2
		c0,0.8,0.6,1.2,1.8,1.2h5.9C208.8,25.1,210.4,25.5,211.5,26.4z M207.3,32.1c0.8-0.3,1.2-0.7,1.2-1.2c0-0.4-0.2-0.7-0.5-0.8
		c-0.3-0.2-0.9-0.3-1.6-0.3h-4.8c-1,0-1.6,0.1-2,0.3s-0.6,0.5-0.6,0.9c0,1.1,1.6,1.6,4.8,1.6C205.3,32.6,206.5,32.4,207.3,32.1z
		 M201.6,15.2c-0.5,0.5-0.7,1.1-0.7,1.8s0.2,1.4,0.7,1.8c0.5,0.5,1.1,0.7,1.9,0.7s1.4-0.2,1.9-0.7s0.7-1.1,0.7-1.8s-0.2-1.4-0.7-1.8
		c-0.5-0.5-1.1-0.7-1.9-0.7S202.1,14.8,201.6,15.2z"/>
	<path d="M232.3,21.9h-11.9c0.2,1.1,0.6,1.9,1.2,2.4s1.4,0.8,2.5,0.8c0.9,0,1.6-0.2,2.1-0.5c0.5-0.3,0.9-0.8,1.1-1.4l4.8,1.5
		c-0.5,1.5-1.4,2.6-2.8,3.4c-1.4,0.8-3.1,1.2-5.2,1.2c-3,0-5.4-0.8-7-2.4s-2.4-3.8-2.4-6.7c0-2.9,0.8-5.1,2.4-6.7
		c1.6-1.6,3.8-2.4,6.7-2.4c2.8,0,5,0.8,6.5,2.3c1.5,1.5,2.2,3.7,2.2,6.5C232.4,20.8,232.4,21.4,232.3,21.9z M220.3,18.7h6.6
		c-0.3-2.3-1.3-3.4-3.2-3.4C221.8,15.3,220.7,16.4,220.3,18.7z"/>
	<path d="M251.6,12.8c1.1,1.1,1.6,2.6,1.6,4.6v11.6h-5.9V19c0-1.2-0.2-2-0.6-2.5c-0.4-0.5-1-0.8-1.8-0.8c-0.9,0-1.7,0.3-2.3,1
		c-0.6,0.7-0.9,1.7-0.9,3v9.2h-5.9V11.5h5.3l0.2,3.3c0.6-1.2,1.3-2.2,2.4-2.8c1-0.6,2.2-0.9,3.6-0.9C249,11.2,250.5,11.7,251.6,12.8
		z"/>
	<path d="M275,4.1v24.8h-5.3l-0.2-3.3c-0.5,1.1-1.3,2-2.2,2.7c-1,0.6-2.1,1-3.4,1c-2.3,0-4-0.8-5.3-2.4c-1.3-1.6-1.9-3.8-1.9-6.6
		c0-2.9,0.6-5.1,1.9-6.7c1.3-1.6,3-2.4,5.3-2.4c1.2,0,2.3,0.3,3.2,0.9s1.6,1.4,2.1,2.4V4.1H275z M268.1,23.9c0.6-0.7,0.9-1.7,1-3
		v-1.4c-0.1-1.3-0.4-2.3-1-3s-1.3-1-2.3-1c-1,0-1.9,0.4-2.4,1.2s-0.9,2-0.9,3.6s0.3,2.8,0.9,3.6s1.4,1.2,2.4,1.2
		C266.8,24.9,267.6,24.6,268.1,23.9z"/>
	<path d="M294.4,13.5c1.6,1.6,2.4,3.8,2.4,6.7c0,2.9-0.8,5.1-2.4,6.7c-1.6,1.6-3.9,2.4-6.8,2.4c-2.9,0-5.2-0.8-6.8-2.4
		c-1.6-1.6-2.4-3.8-2.4-6.7c0-2.9,0.8-5.1,2.4-6.7c1.6-1.6,3.9-2.4,6.8-2.4C290.5,11.2,292.8,12,294.4,13.5z M285.1,16.5
		c-0.5,0.8-0.8,2-0.8,3.7c0,1.7,0.3,2.9,0.8,3.7c0.5,0.8,1.4,1.1,2.5,1.1s1.9-0.4,2.5-1.1c0.5-0.8,0.8-2,0.8-3.7
		c0-1.7-0.3-2.9-0.8-3.7c-0.5-0.8-1.4-1.2-2.5-1.2S285.7,15.8,285.1,16.5z"/>
	<path d="M317,21.9h-11.9c0.2,1.1,0.6,1.9,1.2,2.4c0.6,0.5,1.4,0.8,2.5,0.8c0.9,0,1.6-0.2,2.1-0.5c0.5-0.3,0.9-0.8,1.1-1.4l4.8,1.5
		c-0.5,1.5-1.4,2.6-2.8,3.4c-1.4,0.8-3.1,1.2-5.2,1.2c-3,0-5.4-0.8-7-2.4s-2.4-3.8-2.4-6.7c0-2.9,0.8-5.1,2.4-6.7
		c1.6-1.6,3.8-2.4,6.7-2.4c2.8,0,5,0.8,6.5,2.3c1.5,1.5,2.2,3.7,2.2,6.5C317.2,20.8,317.1,21.4,317,21.9z M305.1,18.7h6.6
		c-0.3-2.3-1.3-3.4-3.2-3.4C306.6,15.3,305.5,16.4,305.1,18.7z"/>
	<path d="M336.3,12.8c1.1,1.1,1.6,2.6,1.6,4.6v11.6h-5.9V19c0-1.2-0.2-2-0.6-2.5c-0.4-0.5-1-0.8-1.8-0.8c-0.9,0-1.7,0.3-2.3,1
		c-0.6,0.7-0.9,1.7-0.9,3v9.2h-5.9V11.5h5.3l0.2,3.3c0.6-1.2,1.3-2.2,2.4-2.8c1-0.6,2.2-0.9,3.6-0.9
		C333.8,11.2,335.2,11.7,336.3,12.8z"/>
</g>
<g class="st0">
	<path d="M80.8,57.3v-8.9h-1.4v-1h1.4v-0.3c0-1.2,0.3-2.2,0.8-2.9c0.5-0.7,1.2-1,2.1-1c0.4,0,0.8,0.1,1.1,0.2
		c0.4,0.1,0.7,0.3,0.9,0.5l-0.4,0.9c-0.2-0.1-0.4-0.2-0.7-0.3c-0.3-0.1-0.5-0.1-0.8-0.1c-0.6,0-1.1,0.2-1.4,0.7s-0.5,1.1-0.5,2v0.3
		h2.7v1h-2.7v8.9H80.8z"/>
	<path d="M91.5,48.5c-0.9,0-1.6,0.3-2.3,0.7s-1.1,1.1-1.4,1.9v6.1h-1.3v-9.9h1.2v2.4c0.4-0.8,0.9-1.4,1.5-1.8c0.6-0.4,1.3-0.6,2-0.6
		c0.1,0,0.2,0,0.2,0V48.5z"/>
	<path d="M97,57.5c-0.7,0-1.4-0.1-2-0.4c-0.6-0.3-1.1-0.6-1.6-1.1c-0.4-0.5-0.8-1-1-1.6c-0.2-0.6-0.4-1.3-0.4-2c0-0.7,0.1-1.3,0.4-2
		s0.6-1.2,1-1.6s1-0.8,1.6-1.1c0.6-0.3,1.3-0.4,2-0.4c0.7,0,1.4,0.1,2,0.4c0.6,0.3,1.1,0.6,1.5,1.1c0.4,0.5,0.8,1,1,1.6
		c0.2,0.6,0.4,1.3,0.4,1.9c0,0.1,0,0.2,0,0.3c0,0.1,0,0.2,0,0.2h-8.5c0,0.5,0.2,1,0.4,1.5c0.2,0.4,0.5,0.8,0.8,1.2
		c0.3,0.3,0.7,0.6,1.1,0.8c0.4,0.2,0.9,0.3,1.4,0.3c0.3,0,0.6,0,0.9-0.1c0.3-0.1,0.6-0.2,0.9-0.4c0.3-0.2,0.5-0.3,0.7-0.6
		c0.2-0.2,0.4-0.5,0.5-0.7l1.1,0.3c-0.2,0.4-0.4,0.7-0.6,1s-0.6,0.6-1,0.8c-0.4,0.2-0.8,0.4-1.2,0.5S97.5,57.5,97,57.5z M100.7,51.8
		c0-0.5-0.2-1-0.4-1.5c-0.2-0.4-0.5-0.8-0.8-1.1c-0.3-0.3-0.7-0.6-1.1-0.7c-0.4-0.2-0.9-0.3-1.4-0.3s-0.9,0.1-1.4,0.3
		c-0.4,0.2-0.8,0.4-1.1,0.7c-0.3,0.3-0.6,0.7-0.8,1.1c-0.2,0.4-0.3,0.9-0.4,1.4H100.7z"/>
	<path d="M108.2,57.5c-0.7,0-1.4-0.1-2-0.4c-0.6-0.3-1.1-0.6-1.6-1.1c-0.4-0.5-0.8-1-1-1.6c-0.2-0.6-0.4-1.3-0.4-2
		c0-0.7,0.1-1.3,0.4-2s0.6-1.2,1-1.6s1-0.8,1.6-1.1c0.6-0.3,1.3-0.4,2-0.4c0.7,0,1.4,0.1,2,0.4c0.6,0.3,1.1,0.6,1.5,1.1
		c0.4,0.5,0.8,1,1,1.6c0.2,0.6,0.4,1.3,0.4,1.9c0,0.1,0,0.2,0,0.3c0,0.1,0,0.2,0,0.2h-8.5c0,0.5,0.2,1,0.4,1.5
		c0.2,0.4,0.5,0.8,0.8,1.2c0.3,0.3,0.7,0.6,1.1,0.8c0.4,0.2,0.9,0.3,1.4,0.3c0.3,0,0.6,0,0.9-0.1c0.3-0.1,0.6-0.2,0.9-0.4
		c0.3-0.2,0.5-0.3,0.7-0.6c0.2-0.2,0.4-0.5,0.5-0.7l1.1,0.3c-0.2,0.4-0.4,0.7-0.6,1s-0.6,0.6-1,0.8c-0.4,0.2-0.8,0.4-1.2,0.5
		S108.7,57.5,108.2,57.5z M111.8,51.8c0-0.5-0.2-1-0.4-1.5c-0.2-0.4-0.5-0.8-0.8-1.1c-0.3-0.3-0.7-0.6-1.1-0.7
		c-0.4-0.2-0.9-0.3-1.4-0.3s-0.9,0.1-1.4,0.3c-0.4,0.2-0.8,0.4-1.1,0.7c-0.3,0.3-0.6,0.7-0.8,1.1c-0.2,0.4-0.3,0.9-0.4,1.4H111.8z"
		/>
	<path d="M115.1,43.4h1.3V55c0,0.4,0.1,0.7,0.3,0.9c0.2,0.2,0.5,0.3,0.9,0.3c0.1,0,0.3,0,0.5-0.1s0.4-0.1,0.5-0.2l0.2,1
		c-0.2,0.1-0.5,0.2-0.9,0.2c-0.3,0.1-0.6,0.1-0.9,0.1c-0.6,0-1.1-0.2-1.4-0.5c-0.3-0.3-0.5-0.8-0.5-1.4V43.4z"/>
	<path d="M122.7,57.5c-0.5,0-0.9-0.1-1.3-0.2c-0.4-0.2-0.7-0.4-1-0.7s-0.5-0.6-0.7-1c-0.2-0.4-0.2-0.8-0.2-1.2
		c0-0.4,0.1-0.8,0.3-1.2c0.2-0.4,0.5-0.7,0.9-0.9s0.8-0.5,1.3-0.6s1.1-0.2,1.7-0.2c0.5,0,1,0,1.5,0.1c0.5,0.1,1,0.2,1.4,0.4V51
		c0-0.9-0.2-1.6-0.7-2.1c-0.5-0.5-1.2-0.8-2-0.8c-0.5,0-1,0.1-1.6,0.3s-1.1,0.5-1.6,0.9l-0.5-0.9c1.3-0.9,2.5-1.3,3.7-1.3
		c1.2,0,2.2,0.3,2.9,1c0.7,0.7,1.1,1.7,1.1,2.9v4.5c0,0.4,0.2,0.5,0.5,0.5v1.1c-0.2,0-0.4,0.1-0.5,0.1c-0.3,0-0.6-0.1-0.8-0.2
		c-0.2-0.2-0.3-0.4-0.3-0.7l0-0.8c-0.5,0.6-1,1-1.7,1.4C124.2,57.3,123.5,57.5,122.7,57.5z M123,56.5c0.7,0,1.3-0.1,1.8-0.4
		c0.6-0.3,1-0.6,1.3-1c0.1-0.1,0.2-0.2,0.3-0.4c0.1-0.1,0.1-0.3,0.1-0.4v-1.6c-0.4-0.2-0.9-0.3-1.3-0.4c-0.5-0.1-0.9-0.1-1.4-0.1
		c-0.9,0-1.6,0.2-2.2,0.6s-0.9,0.9-0.9,1.5c0,0.3,0.1,0.6,0.2,0.9c0.1,0.3,0.3,0.5,0.5,0.7c0.2,0.2,0.5,0.4,0.7,0.5
		C122.3,56.4,122.7,56.5,123,56.5z"/>
	<path d="M138.8,57.3h-1.3v-5.5c0-1.2-0.2-2-0.5-2.6c-0.3-0.5-0.9-0.8-1.6-0.8c-0.4,0-0.8,0.1-1.1,0.2c-0.4,0.1-0.7,0.3-1.1,0.6
		c-0.3,0.3-0.6,0.6-0.9,0.9c-0.3,0.3-0.4,0.7-0.5,1.1v6h-1.3v-9.9h1.2v2.2c0.4-0.7,1-1.3,1.7-1.7s1.6-0.7,2.5-0.7
		c0.5,0,1,0.1,1.4,0.3c0.4,0.2,0.7,0.5,0.9,0.9s0.4,0.8,0.5,1.3s0.2,1.1,0.2,1.8V57.3z"/>
	<path d="M140.9,52.3c0-0.7,0.1-1.4,0.4-2c0.2-0.6,0.6-1.2,1-1.6c0.4-0.5,1-0.8,1.6-1.1s1.3-0.4,2-0.4c0.9,0,1.8,0.2,2.4,0.6
		c0.7,0.4,1.2,1,1.6,1.7l-1.3,0.4c-0.3-0.5-0.7-0.9-1.2-1.2c-0.5-0.3-1.1-0.4-1.7-0.4c-0.5,0-1,0.1-1.4,0.3s-0.8,0.5-1.1,0.8
		c-0.3,0.3-0.6,0.8-0.8,1.2c-0.2,0.5-0.3,1-0.3,1.6c0,0.6,0.1,1.1,0.3,1.6c0.2,0.5,0.4,0.9,0.8,1.3c0.3,0.4,0.7,0.6,1.1,0.9
		c0.4,0.2,0.9,0.3,1.4,0.3c0.3,0,0.6,0,0.9-0.1c0.3-0.1,0.6-0.2,0.9-0.4c0.3-0.2,0.5-0.3,0.7-0.5c0.2-0.2,0.3-0.4,0.4-0.6L150,55
		c-0.1,0.4-0.3,0.7-0.6,1c-0.3,0.3-0.6,0.6-0.9,0.8c-0.4,0.2-0.8,0.4-1.2,0.5s-0.9,0.2-1.4,0.2c-0.7,0-1.4-0.1-2-0.4
		c-0.6-0.3-1.1-0.6-1.6-1.1c-0.4-0.5-0.8-1-1-1.6C141,53.7,140.9,53,140.9,52.3z"/>
	<path d="M156.2,57.5c-0.7,0-1.4-0.1-2-0.4c-0.6-0.3-1.1-0.6-1.6-1.1c-0.4-0.5-0.8-1-1-1.6c-0.2-0.6-0.4-1.3-0.4-2
		c0-0.7,0.1-1.3,0.4-2s0.6-1.2,1-1.6s1-0.8,1.6-1.1c0.6-0.3,1.3-0.4,2-0.4c0.7,0,1.4,0.1,2,0.4c0.6,0.3,1.1,0.6,1.5,1.1
		c0.4,0.5,0.8,1,1,1.6c0.2,0.6,0.4,1.3,0.4,1.9c0,0.1,0,0.2,0,0.3c0,0.1,0,0.2,0,0.2h-8.5c0,0.5,0.2,1,0.4,1.5
		c0.2,0.4,0.5,0.8,0.8,1.2c0.3,0.3,0.7,0.6,1.1,0.8c0.4,0.2,0.9,0.3,1.4,0.3c0.3,0,0.6,0,0.9-0.1c0.3-0.1,0.6-0.2,0.9-0.4
		c0.3-0.2,0.5-0.3,0.7-0.6c0.2-0.2,0.4-0.5,0.5-0.7l1.1,0.3c-0.2,0.4-0.4,0.7-0.6,1s-0.6,0.6-1,0.8c-0.4,0.2-0.8,0.4-1.2,0.5
		S156.6,57.5,156.2,57.5z M159.8,51.8c0-0.5-0.2-1-0.4-1.5c-0.2-0.4-0.5-0.8-0.8-1.1c-0.3-0.3-0.7-0.6-1.1-0.7
		c-0.4-0.2-0.9-0.3-1.4-0.3s-0.9,0.1-1.4,0.3c-0.4,0.2-0.8,0.4-1.1,0.7c-0.3,0.3-0.6,0.7-0.8,1.1c-0.2,0.4-0.3,0.9-0.4,1.4H159.8z"
		/>
	<path d="M168.3,57.3v-8.9H167v-1h1.4v-0.3c0-1.2,0.3-2.2,0.8-2.9c0.5-0.7,1.2-1,2.1-1c0.4,0,0.8,0.1,1.1,0.2
		c0.4,0.1,0.7,0.3,0.9,0.5l-0.4,0.9c-0.2-0.1-0.4-0.2-0.7-0.3c-0.3-0.1-0.5-0.1-0.8-0.1c-0.6,0-1.1,0.2-1.4,0.7s-0.5,1.1-0.5,2v0.3
		h2.7v1h-2.7v8.9H168.3z"/>
	<path d="M179,48.5c-0.9,0-1.6,0.3-2.3,0.7s-1.1,1.1-1.4,1.9v6.1h-1.3v-9.9h1.2v2.4c0.4-0.8,0.9-1.4,1.5-1.8c0.6-0.4,1.3-0.6,2-0.6
		c0.1,0,0.2,0,0.2,0V48.5z"/>
	<path d="M184.5,57.5c-0.7,0-1.4-0.1-2-0.4s-1.1-0.6-1.5-1.1c-0.4-0.5-0.8-1-1-1.6c-0.2-0.6-0.4-1.3-0.4-2c0-0.7,0.1-1.4,0.4-2
		c0.2-0.6,0.6-1.2,1-1.6c0.4-0.5,1-0.8,1.5-1.1c0.6-0.3,1.2-0.4,2-0.4s1.4,0.1,2,0.4c0.6,0.3,1.1,0.7,1.6,1.1c0.4,0.5,0.8,1,1,1.6
		c0.2,0.6,0.4,1.3,0.4,2c0,0.7-0.1,1.3-0.4,2s-0.6,1.2-1,1.6c-0.4,0.5-1,0.8-1.6,1.1C185.9,57.3,185.2,57.5,184.5,57.5z M180.9,52.4
		c0,0.6,0.1,1.1,0.3,1.5c0.2,0.5,0.4,0.9,0.8,1.3s0.7,0.6,1.1,0.8c0.4,0.2,0.9,0.3,1.4,0.3s1-0.1,1.4-0.3c0.4-0.2,0.8-0.5,1.1-0.9
		c0.3-0.4,0.6-0.8,0.8-1.3s0.3-1,0.3-1.6c0-0.5-0.1-1.1-0.3-1.5s-0.4-0.9-0.8-1.3c-0.3-0.4-0.7-0.6-1.1-0.9
		c-0.4-0.2-0.9-0.3-1.4-0.3s-1,0.1-1.4,0.3c-0.4,0.2-0.8,0.5-1.1,0.9c-0.3,0.4-0.6,0.8-0.8,1.3C181,51.3,180.9,51.8,180.9,52.4z"/>
	<path d="M199.9,57.3h-1.3v-5.5c0-1.2-0.2-2-0.5-2.6c-0.3-0.5-0.9-0.8-1.6-0.8c-0.4,0-0.8,0.1-1.1,0.2c-0.4,0.1-0.7,0.3-1.1,0.6
		c-0.3,0.3-0.6,0.6-0.9,0.9c-0.3,0.3-0.4,0.7-0.5,1.1v6h-1.3v-9.9h1.2v2.2c0.4-0.7,1-1.3,1.7-1.7s1.6-0.7,2.5-0.7
		c0.5,0,1,0.1,1.4,0.3c0.4,0.2,0.7,0.5,0.9,0.9s0.4,0.8,0.5,1.3c0.1,0.5,0.2,1.1,0.2,1.8V57.3z"/>
	<path d="M207.2,56.8c-0.1,0-0.2,0.1-0.3,0.2s-0.3,0.1-0.5,0.2c-0.2,0.1-0.4,0.1-0.6,0.2c-0.2,0-0.5,0.1-0.8,0.1
		c-0.3,0-0.5,0-0.8-0.1c-0.3-0.1-0.5-0.2-0.7-0.4s-0.3-0.4-0.5-0.6c-0.1-0.2-0.2-0.5-0.2-0.8v-7.1h-1.4v-1h1.4v-3.3h1.3v3.3h2.3v1
		h-2.3v6.7c0,0.4,0.2,0.6,0.4,0.8c0.2,0.2,0.5,0.3,0.8,0.3c0.4,0,0.7-0.1,1-0.2c0.3-0.1,0.5-0.2,0.5-0.3L207.2,56.8z"/>
	<path d="M208.5,52.7v-1.2h5.5v1.2H208.5z"/>
	<path d="M221,57.5c-0.7,0-1.4-0.1-2-0.4s-1.1-0.6-1.6-1.1c-0.4-0.5-0.8-1-1-1.6c-0.2-0.6-0.4-1.3-0.4-2c0-0.7,0.1-1.3,0.4-2
		c0.2-0.6,0.6-1.2,1-1.6c0.4-0.5,1-0.8,1.6-1.1c0.6-0.3,1.3-0.4,2-0.4c0.7,0,1.4,0.1,2,0.4s1.1,0.6,1.5,1.1s0.8,1,1,1.6
		c0.2,0.6,0.4,1.3,0.4,1.9c0,0.1,0,0.2,0,0.3c0,0.1,0,0.2,0,0.2h-8.5c0,0.5,0.2,1,0.4,1.5c0.2,0.4,0.5,0.8,0.8,1.2
		c0.3,0.3,0.7,0.6,1.1,0.8c0.4,0.2,0.9,0.3,1.4,0.3c0.3,0,0.6,0,0.9-0.1c0.3-0.1,0.6-0.2,0.9-0.4c0.3-0.2,0.5-0.3,0.7-0.6
		c0.2-0.2,0.4-0.5,0.5-0.7l1.1,0.3c-0.2,0.4-0.4,0.7-0.6,1c-0.3,0.3-0.6,0.6-1,0.8c-0.4,0.2-0.8,0.4-1.2,0.5S221.4,57.5,221,57.5z
		 M224.6,51.8c0-0.5-0.2-1-0.4-1.5c-0.2-0.4-0.5-0.8-0.8-1.1c-0.3-0.3-0.7-0.6-1.1-0.7c-0.4-0.2-0.9-0.3-1.4-0.3s-0.9,0.1-1.4,0.3
		c-0.4,0.2-0.8,0.4-1.1,0.7c-0.3,0.3-0.6,0.7-0.8,1.1s-0.3,0.9-0.4,1.4H224.6z"/>
	<path d="M236.1,57.3h-1.3v-5.5c0-1.2-0.2-2-0.5-2.6c-0.3-0.5-0.9-0.8-1.6-0.8c-0.4,0-0.8,0.1-1.1,0.2c-0.4,0.1-0.7,0.3-1.1,0.6
		c-0.3,0.3-0.6,0.6-0.9,0.9c-0.3,0.3-0.4,0.7-0.5,1.1v6h-1.3v-9.9h1.2v2.2c0.4-0.7,1-1.3,1.7-1.7s1.6-0.7,2.5-0.7
		c0.5,0,1,0.1,1.4,0.3c0.4,0.2,0.7,0.5,0.9,0.9s0.4,0.8,0.5,1.3c0.1,0.5,0.2,1.1,0.2,1.8V57.3z"/>
	<path d="M242.9,57.5c-0.7,0-1.3-0.1-1.9-0.4c-0.6-0.3-1.1-0.7-1.5-1.1c-0.4-0.5-0.7-1-1-1.6c-0.2-0.6-0.4-1.3-0.4-1.9
		c0-0.7,0.1-1.4,0.3-2c0.2-0.6,0.5-1.2,0.9-1.6c0.4-0.5,0.9-0.8,1.4-1.1c0.5-0.3,1.2-0.4,1.8-0.4c0.8,0,1.6,0.2,2.2,0.7
		c0.6,0.4,1.1,1,1.5,1.6v-6h1.3v12.2c0,0.4,0.2,0.5,0.5,0.5v1.1c-0.2,0-0.3,0.1-0.5,0.1c-0.3,0-0.6-0.1-0.8-0.3
		c-0.2-0.2-0.3-0.4-0.3-0.7v-1c-0.4,0.6-0.9,1.2-1.6,1.5S243.6,57.5,242.9,57.5z M243.2,56.3c0.3,0,0.7-0.1,1-0.2
		c0.4-0.1,0.7-0.3,1-0.5c0.3-0.2,0.6-0.5,0.8-0.8s0.4-0.6,0.4-1v-3.1c-0.1-0.3-0.3-0.7-0.5-1c-0.2-0.3-0.5-0.6-0.8-0.8
		s-0.6-0.4-1-0.5c-0.4-0.1-0.7-0.2-1-0.2c-0.5,0-1,0.1-1.4,0.3s-0.8,0.5-1.1,0.9s-0.5,0.8-0.7,1.3s-0.2,1-0.2,1.5
		c0,0.5,0.1,1,0.3,1.5c0.2,0.5,0.4,0.9,0.8,1.3s0.7,0.6,1.2,0.9C242.2,56.2,242.7,56.3,243.2,56.3z"/>
	<path d="M259.5,57.5c-0.7,0-1.3-0.1-1.9-0.4c-0.6-0.3-1.1-0.7-1.5-1.1c-0.4-0.5-0.7-1-1-1.6c-0.2-0.6-0.4-1.3-0.4-1.9
		c0-0.7,0.1-1.4,0.3-2c0.2-0.6,0.5-1.2,0.9-1.6c0.4-0.5,0.9-0.8,1.4-1.1c0.5-0.3,1.2-0.4,1.8-0.4c0.8,0,1.6,0.2,2.2,0.7
		c0.6,0.4,1.1,1,1.5,1.6v-6h1.3v12.2c0,0.4,0.2,0.5,0.5,0.5v1.1c-0.2,0-0.3,0.1-0.5,0.1c-0.3,0-0.6-0.1-0.8-0.3
		c-0.2-0.2-0.3-0.4-0.3-0.7v-1c-0.4,0.6-0.9,1.2-1.6,1.5S260.3,57.5,259.5,57.5z M259.8,56.3c0.3,0,0.7-0.1,1-0.2
		c0.4-0.1,0.7-0.3,1-0.5c0.3-0.2,0.6-0.5,0.8-0.8s0.4-0.6,0.4-1v-3.1c-0.1-0.3-0.3-0.7-0.5-1c-0.2-0.3-0.5-0.6-0.8-0.8
		s-0.6-0.4-1-0.5c-0.4-0.1-0.7-0.2-1-0.2c-0.5,0-1,0.1-1.4,0.3s-0.8,0.5-1.1,0.9s-0.5,0.8-0.7,1.3s-0.2,1-0.2,1.5
		c0,0.5,0.1,1,0.3,1.5c0.2,0.5,0.4,0.9,0.8,1.3s0.7,0.6,1.2,0.9C258.8,56.2,259.3,56.3,259.8,56.3z"/>
	<path d="M271.5,57.5c-0.7,0-1.4-0.1-2-0.4s-1.1-0.6-1.6-1.1c-0.4-0.5-0.8-1-1-1.6c-0.2-0.6-0.4-1.3-0.4-2c0-0.7,0.1-1.3,0.4-2
		c0.2-0.6,0.6-1.2,1-1.6c0.4-0.5,1-0.8,1.6-1.1c0.6-0.3,1.3-0.4,2-0.4c0.7,0,1.4,0.1,2,0.4s1.1,0.6,1.5,1.1s0.8,1,1,1.6
		c0.2,0.6,0.4,1.3,0.4,1.9c0,0.1,0,0.2,0,0.3c0,0.1,0,0.2,0,0.2h-8.5c0,0.5,0.2,1,0.4,1.5c0.2,0.4,0.5,0.8,0.8,1.2
		c0.3,0.3,0.7,0.6,1.1,0.8c0.4,0.2,0.9,0.3,1.4,0.3c0.3,0,0.6,0,0.9-0.1c0.3-0.1,0.6-0.2,0.9-0.4c0.3-0.2,0.5-0.3,0.7-0.6
		c0.2-0.2,0.4-0.5,0.5-0.7l1.1,0.3c-0.2,0.4-0.4,0.7-0.6,1c-0.3,0.3-0.6,0.6-1,0.8c-0.4,0.2-0.8,0.4-1.2,0.5S272,57.5,271.5,57.5z
		 M275.2,51.8c0-0.5-0.2-1-0.4-1.5c-0.2-0.4-0.5-0.8-0.8-1.1c-0.3-0.3-0.7-0.6-1.1-0.7c-0.4-0.2-0.9-0.3-1.4-0.3s-0.9,0.1-1.4,0.3
		c-0.4,0.2-0.8,0.4-1.1,0.7c-0.3,0.3-0.6,0.7-0.8,1.1s-0.3,0.9-0.4,1.4H275.2z"/>
	<path d="M281.1,57.3l-4-9.9h1.3l3.4,8.7l3.4-8.7h1.3l-4,9.9H281.1z"/>
	<path d="M292.2,57.5c-0.7,0-1.4-0.1-2-0.4s-1.1-0.6-1.6-1.1c-0.4-0.5-0.8-1-1-1.6c-0.2-0.6-0.4-1.3-0.4-2c0-0.7,0.1-1.3,0.4-2
		c0.2-0.6,0.6-1.2,1-1.6c0.4-0.5,1-0.8,1.6-1.1c0.6-0.3,1.3-0.4,2-0.4c0.7,0,1.4,0.1,2,0.4s1.1,0.6,1.5,1.1s0.8,1,1,1.6
		c0.2,0.6,0.4,1.3,0.4,1.9c0,0.1,0,0.2,0,0.3c0,0.1,0,0.2,0,0.2h-8.5c0,0.5,0.2,1,0.4,1.5c0.2,0.4,0.5,0.8,0.8,1.2
		c0.3,0.3,0.7,0.6,1.1,0.8c0.4,0.2,0.9,0.3,1.4,0.3c0.3,0,0.6,0,0.9-0.1c0.3-0.1,0.6-0.2,0.9-0.4c0.3-0.2,0.5-0.3,0.7-0.6
		c0.2-0.2,0.4-0.5,0.5-0.7l1.1,0.3c-0.2,0.4-0.4,0.7-0.6,1c-0.3,0.3-0.6,0.6-1,0.8c-0.4,0.2-0.8,0.4-1.2,0.5S292.7,57.5,292.2,57.5z
		 M295.8,51.8c0-0.5-0.2-1-0.4-1.5c-0.2-0.4-0.5-0.8-0.8-1.1c-0.3-0.3-0.7-0.6-1.1-0.7c-0.4-0.2-0.9-0.3-1.4-0.3s-0.9,0.1-1.4,0.3
		c-0.4,0.2-0.8,0.4-1.1,0.7c-0.3,0.3-0.6,0.7-0.8,1.1s-0.3,0.9-0.4,1.4H295.8z"/>
	<path d="M299.1,43.4h1.3V55c0,0.4,0.1,0.7,0.3,0.9c0.2,0.2,0.5,0.3,0.9,0.3c0.1,0,0.3,0,0.5-0.1s0.4-0.1,0.5-0.2l0.2,1
		c-0.2,0.1-0.5,0.2-0.9,0.2c-0.3,0.1-0.6,0.1-0.9,0.1c-0.6,0-1.1-0.2-1.4-0.5c-0.3-0.3-0.5-0.8-0.5-1.4V43.4z"/>
	<path d="M308.4,57.5c-0.7,0-1.4-0.1-2-0.4s-1.1-0.6-1.5-1.1c-0.4-0.5-0.8-1-1-1.6c-0.2-0.6-0.4-1.3-0.4-2c0-0.7,0.1-1.4,0.4-2
		c0.2-0.6,0.6-1.2,1-1.6c0.4-0.5,1-0.8,1.5-1.1c0.6-0.3,1.2-0.4,2-0.4s1.4,0.1,2,0.4c0.6,0.3,1.1,0.7,1.6,1.1c0.4,0.5,0.8,1,1,1.6
		c0.2,0.6,0.4,1.3,0.4,2c0,0.7-0.1,1.3-0.4,2s-0.6,1.2-1,1.6c-0.4,0.5-1,0.8-1.6,1.1C309.8,57.3,309.1,57.5,308.4,57.5z M304.8,52.4
		c0,0.6,0.1,1.1,0.3,1.5c0.2,0.5,0.4,0.9,0.8,1.3s0.7,0.6,1.1,0.8c0.4,0.2,0.9,0.3,1.4,0.3s1-0.1,1.4-0.3c0.4-0.2,0.8-0.5,1.1-0.9
		c0.3-0.4,0.6-0.8,0.8-1.3s0.3-1,0.3-1.6c0-0.5-0.1-1.1-0.3-1.5s-0.4-0.9-0.8-1.3c-0.3-0.4-0.7-0.6-1.1-0.9
		c-0.4-0.2-0.9-0.3-1.4-0.3s-1,0.1-1.4,0.3c-0.4,0.2-0.8,0.5-1.1,0.9c-0.3,0.4-0.6,0.8-0.8,1.3C304.9,51.3,304.8,51.8,304.8,52.4z"
		/>
	<path d="M320.5,57.5c-0.8,0-1.6-0.2-2.2-0.6c-0.6-0.4-1.2-1-1.5-1.6v6.1h-1.3V47.4h1.2v1.9c0.4-0.6,0.9-1.1,1.6-1.5
		s1.3-0.6,2.1-0.6c0.7,0,1.3,0.1,1.9,0.4c0.6,0.3,1.1,0.7,1.5,1.1s0.7,1,1,1.6c0.2,0.6,0.4,1.3,0.4,1.9c0,0.7-0.1,1.4-0.3,2
		c-0.2,0.6-0.5,1.2-0.9,1.6c-0.4,0.5-0.9,0.8-1.4,1.1S321.2,57.5,320.5,57.5z M320.2,56.3c0.5,0,1-0.1,1.5-0.3
		c0.4-0.2,0.8-0.5,1.1-0.9s0.5-0.8,0.7-1.3c0.2-0.5,0.2-1,0.2-1.5c0-0.5-0.1-1-0.3-1.5s-0.4-0.9-0.8-1.3c-0.3-0.4-0.7-0.7-1.2-0.9
		c-0.4-0.2-0.9-0.3-1.5-0.3c-0.3,0-0.7,0.1-1,0.2s-0.7,0.3-1,0.5c-0.3,0.2-0.6,0.5-0.8,0.8c-0.2,0.3-0.4,0.6-0.4,0.9v3
		c0.2,0.4,0.3,0.7,0.6,1c0.2,0.3,0.5,0.6,0.8,0.8c0.3,0.2,0.6,0.4,1,0.5C319.4,56.3,319.8,56.3,320.2,56.3z"/>
	<path d="M331.4,57.5c-0.7,0-1.4-0.1-2-0.4c-0.6-0.3-1.1-0.6-1.6-1.1c-0.4-0.5-0.8-1-1-1.6c-0.2-0.6-0.4-1.3-0.4-2
		c0-0.7,0.1-1.3,0.4-2c0.2-0.6,0.6-1.2,1-1.6c0.4-0.5,1-0.8,1.6-1.1s1.3-0.4,2-0.4c0.7,0,1.4,0.1,2,0.4c0.6,0.3,1.1,0.6,1.5,1.1
		c0.4,0.5,0.8,1,1,1.6c0.2,0.6,0.4,1.3,0.4,1.9c0,0.1,0,0.2,0,0.3c0,0.1,0,0.2,0,0.2h-8.5c0,0.5,0.2,1,0.4,1.5
		c0.2,0.4,0.5,0.8,0.8,1.2c0.3,0.3,0.7,0.6,1.1,0.8c0.4,0.2,0.9,0.3,1.4,0.3c0.3,0,0.6,0,0.9-0.1c0.3-0.1,0.6-0.2,0.9-0.4
		s0.5-0.3,0.7-0.6c0.2-0.2,0.4-0.5,0.5-0.7l1.1,0.3c-0.2,0.4-0.4,0.7-0.6,1c-0.3,0.3-0.6,0.6-1,0.8c-0.4,0.2-0.8,0.4-1.2,0.5
		S331.9,57.5,331.4,57.5z M335.1,51.8c0-0.5-0.2-1-0.4-1.5c-0.2-0.4-0.5-0.8-0.8-1.1c-0.3-0.3-0.7-0.6-1.1-0.7
		c-0.4-0.2-0.9-0.3-1.4-0.3s-0.9,0.1-1.4,0.3c-0.4,0.2-0.8,0.4-1.1,0.7c-0.3,0.3-0.6,0.7-0.8,1.1c-0.2,0.4-0.3,0.9-0.4,1.4H335.1z"
		/>
	<path d="M343.2,48.5c-0.9,0-1.6,0.3-2.3,0.7s-1.1,1.1-1.4,1.9v6.1h-1.3v-9.9h1.2v2.4c0.4-0.8,0.9-1.4,1.5-1.8s1.3-0.6,2-0.6
		c0.1,0,0.2,0,0.2,0V48.5z"/>
</g>
<g>
	<path class="st1" d="M2.2,52.7h56"/>
	<path class="st2" d="M3.7,22.9h47.4v1.2H3.7L3.7,22.9z"/>
</g>
</svg>
